<mxfile host="65bd71144e">
    <diagram name="Page-1" id="NpB9seTG7OIaZE01cQ_W">
        <mxGraphModel dx="2183" dy="1227" grid="0" gridSize="10" guides="1" tooltips="1" connect="1" arrows="1" fold="1" page="0" pageScale="1" pageWidth="827" pageHeight="1169" background="#05010F" math="0" shadow="0">
            <root>
                <mxCell id="0"/>
                <mxCell id="1" parent="0"/>
                <mxCell id="a_mR20tuXjC3Zlg9Piwa-14" style="edgeStyle=orthogonalEdgeStyle;rounded=0;orthogonalLoop=1;jettySize=auto;html=1;exitX=0.5;exitY=0;exitDx=0;exitDy=0;" parent="1" source="TZVktLVVKrQjs7F4-dLv-7" target="a_mR20tuXjC3Zlg9Piwa-1" edge="1">
                    <mxGeometry relative="1" as="geometry"/>
                </mxCell>
                <mxCell id="TZVktLVVKrQjs7F4-dLv-7" value="PipBoy" style="swimlane;fontStyle=0;childLayout=stackLayout;horizontal=1;startSize=30;horizontalStack=0;resizeParent=1;resizeParentMax=0;resizeLast=0;collapsible=1;marginBottom=0;whiteSpace=wrap;html=1;autosize=0;comic=0;enumerate=0;moveCells=0;backgroundOutline=0;" parent="1" vertex="1">
                    <mxGeometry x="-104.75" y="300" width="193" height="106" as="geometry"/>
                </mxCell>
                <mxCell id="TZVktLVVKrQjs7F4-dLv-8" value="-inputManager:InputManager&amp;amp;&lt;div&gt;-speaker:Speaker&amp;amp;&lt;/div&gt;&lt;div&gt;-tabManager:TabManager&amp;amp;&lt;/div&gt;" style="text;strokeColor=default;fillColor=none;align=left;verticalAlign=middle;spacingLeft=4;spacingRight=4;overflow=hidden;points=[[0,0.5],[1,0.5]];portConstraint=eastwest;rotatable=0;whiteSpace=wrap;html=1;" parent="TZVktLVVKrQjs7F4-dLv-7" vertex="1">
                    <mxGeometry y="30" width="193" height="46" as="geometry"/>
                </mxCell>
                <mxCell id="TZVktLVVKrQjs7F4-dLv-9" value="" style="text;strokeColor=default;fillColor=none;align=left;verticalAlign=middle;spacingLeft=4;spacingRight=4;overflow=hidden;points=[[0,0.5],[1,0.5]];portConstraint=eastwest;rotatable=0;whiteSpace=wrap;html=1;" parent="TZVktLVVKrQjs7F4-dLv-7" vertex="1">
                    <mxGeometry y="76" width="193" height="30" as="geometry"/>
                </mxCell>
                <mxCell id="TZVktLVVKrQjs7F4-dLv-15" value="Tab" style="swimlane;fontStyle=0;childLayout=stackLayout;horizontal=1;startSize=30;horizontalStack=0;resizeParent=1;resizeParentMax=0;resizeLast=0;collapsible=1;marginBottom=0;whiteSpace=wrap;html=1;autosize=0;comic=0;enumerate=0;moveCells=0;backgroundOutline=0;" parent="1" vertex="1">
                    <mxGeometry x="-100" y="-104" width="183.5" height="110" as="geometry"/>
                </mxCell>
                <mxCell id="TZVktLVVKrQjs7F4-dLv-16" value="-speaker:Speaker&amp;amp;" style="text;strokeColor=default;fillColor=none;align=left;verticalAlign=middle;spacingLeft=4;spacingRight=4;overflow=hidden;points=[[0,0.5],[1,0.5]];portConstraint=eastwest;rotatable=0;whiteSpace=wrap;html=1;" parent="TZVktLVVKrQjs7F4-dLv-15" vertex="1">
                    <mxGeometry y="30" width="183.5" height="30" as="geometry"/>
                </mxCell>
                <mxCell id="TZVktLVVKrQjs7F4-dLv-17" value="&lt;span style=&quot;font-size: 11px; text-align: center; text-wrap-mode: nowrap;&quot;&gt;+update()&lt;/span&gt;&lt;br style=&quot;font-size: 11px; text-align: center; text-wrap-mode: nowrap;&quot;&gt;&lt;span style=&quot;font-size: 11px; text-align: center; text-wrap-mode: nowrap;&quot;&gt;+render()&lt;/span&gt;&lt;div style=&quot;font-size: 11px; text-align: center; text-wrap-mode: nowrap;&quot;&gt;+handleInput(i&lt;span style=&quot;text-align: left;&quot;&gt;nputIDs[]:eInputID&lt;/span&gt;)&lt;/div&gt;" style="text;strokeColor=default;fillColor=none;align=left;verticalAlign=middle;spacingLeft=4;spacingRight=4;overflow=hidden;points=[[0,0.5],[1,0.5]];portConstraint=eastwest;rotatable=0;whiteSpace=wrap;html=1;" parent="TZVktLVVKrQjs7F4-dLv-15" vertex="1">
                    <mxGeometry y="60" width="183.5" height="50" as="geometry"/>
                </mxCell>
                <mxCell id="TZVktLVVKrQjs7F4-dLv-19" value="StatTab" style="swimlane;fontStyle=0;childLayout=stackLayout;horizontal=1;startSize=30;horizontalStack=0;resizeParent=1;resizeParentMax=0;resizeLast=0;collapsible=1;marginBottom=0;whiteSpace=wrap;html=1;autosize=0;comic=0;enumerate=0;moveCells=0;backgroundOutline=0;" parent="1" vertex="1">
                    <mxGeometry x="-276" y="-278" width="140" height="90" as="geometry"/>
                </mxCell>
                <mxCell id="TZVktLVVKrQjs7F4-dLv-20" value="Item 1" style="text;strokeColor=default;fillColor=none;align=left;verticalAlign=middle;spacingLeft=4;spacingRight=4;overflow=hidden;points=[[0,0.5],[1,0.5]];portConstraint=eastwest;rotatable=0;whiteSpace=wrap;html=1;" parent="TZVktLVVKrQjs7F4-dLv-19" vertex="1">
                    <mxGeometry y="30" width="140" height="30" as="geometry"/>
                </mxCell>
                <mxCell id="TZVktLVVKrQjs7F4-dLv-21" value="Item 2" style="text;strokeColor=default;fillColor=none;align=left;verticalAlign=middle;spacingLeft=4;spacingRight=4;overflow=hidden;points=[[0,0.5],[1,0.5]];portConstraint=eastwest;rotatable=0;whiteSpace=wrap;html=1;" parent="TZVktLVVKrQjs7F4-dLv-19" vertex="1">
                    <mxGeometry y="60" width="140" height="30" as="geometry"/>
                </mxCell>
                <mxCell id="TZVktLVVKrQjs7F4-dLv-23" value="RadioTab" style="swimlane;fontStyle=0;childLayout=stackLayout;horizontal=1;startSize=30;horizontalStack=0;resizeParent=1;resizeParentMax=0;resizeLast=0;collapsible=1;marginBottom=0;whiteSpace=wrap;html=1;autosize=0;comic=0;enumerate=0;moveCells=0;backgroundOutline=0;" parent="1" vertex="1">
                    <mxGeometry x="112" y="-278" width="140" height="90" as="geometry"/>
                </mxCell>
                <mxCell id="TZVktLVVKrQjs7F4-dLv-24" value="Item 1" style="text;strokeColor=default;fillColor=none;align=left;verticalAlign=middle;spacingLeft=4;spacingRight=4;overflow=hidden;points=[[0,0.5],[1,0.5]];portConstraint=eastwest;rotatable=0;whiteSpace=wrap;html=1;" parent="TZVktLVVKrQjs7F4-dLv-23" vertex="1">
                    <mxGeometry y="30" width="140" height="30" as="geometry"/>
                </mxCell>
                <mxCell id="TZVktLVVKrQjs7F4-dLv-25" value="Item 2" style="text;strokeColor=default;fillColor=none;align=left;verticalAlign=middle;spacingLeft=4;spacingRight=4;overflow=hidden;points=[[0,0.5],[1,0.5]];portConstraint=eastwest;rotatable=0;whiteSpace=wrap;html=1;" parent="TZVktLVVKrQjs7F4-dLv-23" vertex="1">
                    <mxGeometry y="60" width="140" height="30" as="geometry"/>
                </mxCell>
                <mxCell id="TZVktLVVKrQjs7F4-dLv-27" value="DataTab" style="swimlane;fontStyle=0;childLayout=stackLayout;horizontal=1;startSize=30;horizontalStack=0;resizeParent=1;resizeParentMax=0;resizeLast=0;collapsible=1;marginBottom=0;whiteSpace=wrap;html=1;autosize=0;comic=0;enumerate=0;moveCells=0;backgroundOutline=0;" parent="1" vertex="1">
                    <mxGeometry x="-79" y="-278" width="140" height="90" as="geometry"/>
                </mxCell>
                <mxCell id="TZVktLVVKrQjs7F4-dLv-28" value="Item 1" style="text;strokeColor=default;fillColor=none;align=left;verticalAlign=middle;spacingLeft=4;spacingRight=4;overflow=hidden;points=[[0,0.5],[1,0.5]];portConstraint=eastwest;rotatable=0;whiteSpace=wrap;html=1;" parent="TZVktLVVKrQjs7F4-dLv-27" vertex="1">
                    <mxGeometry y="30" width="140" height="30" as="geometry"/>
                </mxCell>
                <mxCell id="TZVktLVVKrQjs7F4-dLv-29" value="Item 2" style="text;strokeColor=default;fillColor=none;align=left;verticalAlign=middle;spacingLeft=4;spacingRight=4;overflow=hidden;points=[[0,0.5],[1,0.5]];portConstraint=eastwest;rotatable=0;whiteSpace=wrap;html=1;" parent="TZVktLVVKrQjs7F4-dLv-27" vertex="1">
                    <mxGeometry y="60" width="140" height="30" as="geometry"/>
                </mxCell>
                <mxCell id="TZVktLVVKrQjs7F4-dLv-31" value="InventoryTab" style="swimlane;fontStyle=0;childLayout=stackLayout;horizontal=1;startSize=30;horizontalStack=0;resizeParent=1;resizeParentMax=0;resizeLast=0;collapsible=1;marginBottom=0;whiteSpace=wrap;html=1;autosize=0;comic=0;enumerate=0;moveCells=0;backgroundOutline=0;" parent="1" vertex="1">
                    <mxGeometry x="112" y="-102" width="140" height="90" as="geometry"/>
                </mxCell>
                <mxCell id="TZVktLVVKrQjs7F4-dLv-32" value="Item 1" style="text;strokeColor=default;fillColor=none;align=left;verticalAlign=middle;spacingLeft=4;spacingRight=4;overflow=hidden;points=[[0,0.5],[1,0.5]];portConstraint=eastwest;rotatable=0;whiteSpace=wrap;html=1;" parent="TZVktLVVKrQjs7F4-dLv-31" vertex="1">
                    <mxGeometry y="30" width="140" height="30" as="geometry"/>
                </mxCell>
                <mxCell id="TZVktLVVKrQjs7F4-dLv-33" value="Item 2" style="text;strokeColor=default;fillColor=none;align=left;verticalAlign=middle;spacingLeft=4;spacingRight=4;overflow=hidden;points=[[0,0.5],[1,0.5]];portConstraint=eastwest;rotatable=0;whiteSpace=wrap;html=1;" parent="TZVktLVVKrQjs7F4-dLv-31" vertex="1">
                    <mxGeometry y="60" width="140" height="30" as="geometry"/>
                </mxCell>
                <mxCell id="TZVktLVVKrQjs7F4-dLv-35" value="MapTab" style="swimlane;fontStyle=0;childLayout=stackLayout;horizontal=1;startSize=30;horizontalStack=0;resizeParent=1;resizeParentMax=0;resizeLast=0;collapsible=1;marginBottom=0;whiteSpace=wrap;html=1;autosize=0;comic=0;enumerate=0;moveCells=0;backgroundOutline=0;" parent="1" vertex="1">
                    <mxGeometry x="-276" y="-102" width="140" height="90" as="geometry"/>
                </mxCell>
                <mxCell id="TZVktLVVKrQjs7F4-dLv-36" value="Item 1" style="text;strokeColor=default;fillColor=none;align=left;verticalAlign=middle;spacingLeft=4;spacingRight=4;overflow=hidden;points=[[0,0.5],[1,0.5]];portConstraint=eastwest;rotatable=0;whiteSpace=wrap;html=1;" parent="TZVktLVVKrQjs7F4-dLv-35" vertex="1">
                    <mxGeometry y="30" width="140" height="30" as="geometry"/>
                </mxCell>
                <mxCell id="TZVktLVVKrQjs7F4-dLv-37" value="Item 2" style="text;strokeColor=default;fillColor=none;align=left;verticalAlign=middle;spacingLeft=4;spacingRight=4;overflow=hidden;points=[[0,0.5],[1,0.5]];portConstraint=eastwest;rotatable=0;whiteSpace=wrap;html=1;" parent="TZVktLVVKrQjs7F4-dLv-35" vertex="1">
                    <mxGeometry y="60" width="140" height="30" as="geometry"/>
                </mxCell>
                <mxCell id="oDtMXYs0QCIHP4GKAs03-2" value="Speaker" style="swimlane;fontStyle=0;childLayout=stackLayout;horizontal=1;startSize=30;horizontalStack=0;resizeParent=1;resizeParentMax=0;resizeLast=0;collapsible=1;marginBottom=0;whiteSpace=wrap;html=1;autosize=0;comic=0;enumerate=0;moveCells=0;backgroundOutline=0;" parent="1" vertex="1">
                    <mxGeometry x="-99.75" y="493" width="181.5" height="126" as="geometry"/>
                </mxCell>
                <mxCell id="oDtMXYs0QCIHP4GKAs03-3" value="Item 1" style="text;strokeColor=default;fillColor=none;align=left;verticalAlign=middle;spacingLeft=4;spacingRight=4;overflow=hidden;points=[[0,0.5],[1,0.5]];portConstraint=eastwest;rotatable=0;whiteSpace=wrap;html=1;" parent="oDtMXYs0QCIHP4GKAs03-2" vertex="1">
                    <mxGeometry y="30" width="181.5" height="30" as="geometry"/>
                </mxCell>
                <mxCell id="oDtMXYs0QCIHP4GKAs03-4" value="&lt;span style=&quot;font-size: 11px; text-wrap-mode: nowrap;&quot;&gt;+playSound(soundID:eSoundID)&lt;/span&gt;&lt;div style=&quot;font-size: 11px; text-wrap-mode: nowrap;&quot;&gt;+setVolume(level: int)&lt;/div&gt;&lt;div style=&quot;font-size: 11px; text-wrap-mode: nowrap;&quot;&gt;+stopSound(soundID:eSoundID)&lt;/div&gt;" style="text;strokeColor=default;fillColor=none;align=left;verticalAlign=middle;spacingLeft=4;spacingRight=4;overflow=hidden;points=[[0,0.5],[1,0.5]];portConstraint=eastwest;rotatable=0;whiteSpace=wrap;html=1;" parent="oDtMXYs0QCIHP4GKAs03-2" vertex="1">
                    <mxGeometry y="60" width="181.5" height="66" as="geometry"/>
                </mxCell>
                <mxCell id="oDtMXYs0QCIHP4GKAs03-10" value="RotaryEncoder" style="swimlane;fontStyle=0;childLayout=stackLayout;horizontal=1;startSize=30;horizontalStack=0;resizeParent=1;resizeParentMax=0;resizeLast=0;collapsible=1;marginBottom=0;whiteSpace=wrap;html=1;autosize=0;comic=0;enumerate=0;moveCells=0;backgroundOutline=0;" parent="1" vertex="1">
                    <mxGeometry x="134.12" y="623" width="298.75" height="90" as="geometry"/>
                </mxCell>
                <mxCell id="oDtMXYs0QCIHP4GKAs03-11" value="-rotaryEncoderListeners:RotaryEncoderListener*[]" style="text;strokeColor=default;fillColor=none;align=left;verticalAlign=middle;spacingLeft=4;spacingRight=4;overflow=hidden;points=[[0,0.5],[1,0.5]];portConstraint=eastwest;rotatable=0;whiteSpace=wrap;html=1;" parent="oDtMXYs0QCIHP4GKAs03-10" vertex="1">
                    <mxGeometry y="30" width="298.75" height="30" as="geometry"/>
                </mxCell>
                <mxCell id="oDtMXYs0QCIHP4GKAs03-12" value="+addRotaryEncoderListener(rotaryEncoderListener*)" style="text;strokeColor=default;fillColor=none;align=left;verticalAlign=middle;spacingLeft=4;spacingRight=4;overflow=hidden;points=[[0,0.5],[1,0.5]];portConstraint=eastwest;rotatable=0;whiteSpace=wrap;html=1;" parent="oDtMXYs0QCIHP4GKAs03-10" vertex="1">
                    <mxGeometry y="60" width="298.75" height="30" as="geometry"/>
                </mxCell>
                <mxCell id="oDtMXYs0QCIHP4GKAs03-14" value="Button" style="swimlane;fontStyle=0;childLayout=stackLayout;horizontal=1;startSize=30;horizontalStack=0;resizeParent=1;resizeParentMax=0;resizeLast=0;collapsible=1;marginBottom=0;whiteSpace=wrap;html=1;autosize=0;comic=0;enumerate=0;moveCells=0;backgroundOutline=0;" parent="1" vertex="1">
                    <mxGeometry x="695" y="300" width="210" height="90" as="geometry"/>
                </mxCell>
                <mxCell id="oDtMXYs0QCIHP4GKAs03-15" value="-buttonListeners:ButtonListener*[]" style="text;strokeColor=default;fillColor=none;align=left;verticalAlign=middle;spacingLeft=4;spacingRight=4;overflow=hidden;points=[[0,0.5],[1,0.5]];portConstraint=eastwest;rotatable=0;whiteSpace=wrap;html=1;" parent="oDtMXYs0QCIHP4GKAs03-14" vertex="1">
                    <mxGeometry y="30" width="210" height="30" as="geometry"/>
                </mxCell>
                <mxCell id="oDtMXYs0QCIHP4GKAs03-16" value="+addButtonListener(ButtonListener*)" style="text;strokeColor=default;fillColor=none;align=left;verticalAlign=middle;spacingLeft=4;spacingRight=4;overflow=hidden;points=[[0,0.5],[1,0.5]];portConstraint=eastwest;rotatable=0;whiteSpace=wrap;html=1;" parent="oDtMXYs0QCIHP4GKAs03-14" vertex="1">
                    <mxGeometry y="60" width="210" height="30" as="geometry"/>
                </mxCell>
                <mxCell id="a_mR20tuXjC3Zlg9Piwa-8" style="edgeStyle=orthogonalEdgeStyle;rounded=0;orthogonalLoop=1;jettySize=auto;html=1;exitX=0.5;exitY=0;exitDx=0;exitDy=0;" parent="1" source="a_mR20tuXjC3Zlg9Piwa-1" target="TZVktLVVKrQjs7F4-dLv-15" edge="1">
                    <mxGeometry relative="1" as="geometry"/>
                </mxCell>
                <mxCell id="a_mR20tuXjC3Zlg9Piwa-1" value="TabManager" style="swimlane;fontStyle=0;childLayout=stackLayout;horizontal=1;startSize=30;horizontalStack=0;resizeParent=1;resizeParentMax=0;resizeLast=0;collapsible=1;marginBottom=0;whiteSpace=wrap;html=1;autosize=0;comic=0;enumerate=0;moveCells=0;backgroundOutline=0;" parent="1" vertex="1">
                    <mxGeometry x="-101.5" y="90" width="185" height="133" as="geometry"/>
                </mxCell>
                <mxCell id="a_mR20tuXjC3Zlg9Piwa-2" value="-tab:Tab&amp;amp;" style="text;strokeColor=default;fillColor=none;align=left;verticalAlign=middle;spacingLeft=4;spacingRight=4;overflow=hidden;points=[[0,0.5],[1,0.5]];portConstraint=eastwest;rotatable=0;whiteSpace=wrap;html=1;" parent="a_mR20tuXjC3Zlg9Piwa-1" vertex="1">
                    <mxGeometry y="30" width="185" height="30" as="geometry"/>
                </mxCell>
                <mxCell id="a_mR20tuXjC3Zlg9Piwa-3" value="&lt;span style=&quot;font-size: 11px; text-align: center; text-wrap-mode: nowrap;&quot;&gt;+switchTab(tabID:eTabID)&lt;/span&gt;&lt;div&gt;&lt;span style=&quot;font-size: 11px; text-align: center; text-wrap-mode: nowrap;&quot;&gt;+getActiveTab()&lt;/span&gt;&lt;/div&gt;&lt;div&gt;&lt;span style=&quot;font-size: 11px; text-align: center; text-wrap-mode: nowrap;&quot;&gt;+forwardInput(&lt;/span&gt;&lt;span style=&quot;font-size: 11px; background-color: transparent;&quot;&gt;inputIDs[]:eInputID&lt;/span&gt;&lt;span style=&quot;font-size: 11px; text-align: center; background-color: transparent;&quot;&gt;)&lt;/span&gt;&lt;/div&gt;" style="text;strokeColor=default;fillColor=none;align=left;verticalAlign=middle;spacingLeft=4;spacingRight=4;overflow=hidden;points=[[0,0.5],[1,0.5]];portConstraint=eastwest;rotatable=0;whiteSpace=wrap;html=1;fontColor=default;" parent="a_mR20tuXjC3Zlg9Piwa-1" vertex="1">
                    <mxGeometry y="60" width="185" height="73" as="geometry"/>
                </mxCell>
                <mxCell id="a_mR20tuXjC3Zlg9Piwa-17" value="InputManager" style="swimlane;fontStyle=0;childLayout=stackLayout;horizontal=1;startSize=30;horizontalStack=0;resizeParent=1;resizeParentMax=0;resizeLast=0;collapsible=1;marginBottom=0;whiteSpace=wrap;html=1;autosize=0;comic=0;enumerate=0;moveCells=0;backgroundOutline=0;" parent="1" vertex="1">
                    <mxGeometry x="185" y="238.5" width="197" height="213" as="geometry"/>
                </mxCell>
                <mxCell id="a_mR20tuXjC3Zlg9Piwa-18" value="-selectorButton:Button&lt;div&gt;-powerButton:Button&lt;br&gt;&lt;div&gt;-controlKnob:RotaryEncoder&lt;/div&gt;&lt;/div&gt;&lt;div&gt;-radioKnob:RotaryEncoder&lt;/div&gt;&lt;div&gt;-smallControlKnob:RotaryEncoder&lt;/div&gt;&lt;div&gt;-selectorKnob:RotaryEncoder&lt;/div&gt;" style="text;strokeColor=default;fillColor=none;align=left;verticalAlign=middle;spacingLeft=4;spacingRight=4;overflow=hidden;points=[[0,0.5],[1,0.5]];portConstraint=eastwest;rotatable=0;whiteSpace=wrap;html=1;" parent="a_mR20tuXjC3Zlg9Piwa-17" vertex="1">
                    <mxGeometry y="30" width="197" height="104" as="geometry"/>
                </mxCell>
                <mxCell id="a_mR20tuXjC3Zlg9Piwa-19" value="+&lt;span style=&quot;font-size: 11px; text-wrap-mode: nowrap;&quot;&gt;buttonPressed(inputID:eInputID)&lt;/span&gt;&lt;div&gt;+&lt;span style=&quot;text-wrap-mode: nowrap; font-size: 11px;&quot;&gt;buttonReleased(inputID:eInputID)&lt;/span&gt;&lt;span style=&quot;font-size: 11px; text-wrap-mode: nowrap;&quot;&gt;&lt;br&gt;&lt;/span&gt;&lt;div&gt;&lt;div style=&quot;&quot;&gt;&lt;span style=&quot;font-size: 11px; text-wrap-mode: nowrap;&quot;&gt;+&lt;/span&gt;&lt;span style=&quot;font-size: 11px; background-color: transparent;&quot;&gt;rotationCounter(inputID:eInputID)&lt;/span&gt;&lt;/div&gt;&lt;/div&gt;&lt;div style=&quot;&quot;&gt;&lt;span style=&quot;font-size: 11px; background-color: transparent;&quot;&gt;+pollInput(inputIDs[]:eInputID)&lt;/span&gt;&lt;/div&gt;&lt;/div&gt;" style="text;strokeColor=default;fillColor=none;align=left;verticalAlign=middle;spacingLeft=4;spacingRight=4;overflow=hidden;points=[[0,0.5],[1,0.5]];portConstraint=eastwest;rotatable=0;whiteSpace=wrap;html=1;fontColor=default;" parent="a_mR20tuXjC3Zlg9Piwa-17" vertex="1">
                    <mxGeometry y="134" width="197" height="79" as="geometry"/>
                </mxCell>
                <mxCell id="a_mR20tuXjC3Zlg9Piwa-21" value="" style="endArrow=classic;html=1;rounded=0;" parent="1" source="TZVktLVVKrQjs7F4-dLv-7" target="a_mR20tuXjC3Zlg9Piwa-17" edge="1">
                    <mxGeometry width="50" height="50" relative="1" as="geometry">
                        <mxPoint x="45" y="225" as="sourcePoint"/>
                        <mxPoint x="95" y="175" as="targetPoint"/>
                    </mxGeometry>
                </mxCell>
                <mxCell id="a_mR20tuXjC3Zlg9Piwa-22" value="" style="endArrow=classic;html=1;rounded=0;" parent="1" source="TZVktLVVKrQjs7F4-dLv-7" target="oDtMXYs0QCIHP4GKAs03-2" edge="1">
                    <mxGeometry width="50" height="50" relative="1" as="geometry">
                        <mxPoint x="240" y="471" as="sourcePoint"/>
                        <mxPoint x="290" y="421" as="targetPoint"/>
                    </mxGeometry>
                </mxCell>
                <mxCell id="a_mR20tuXjC3Zlg9Piwa-36" value="" style="endArrow=classic;html=1;rounded=0;" parent="1" source="TZVktLVVKrQjs7F4-dLv-15" target="TZVktLVVKrQjs7F4-dLv-35" edge="1">
                    <mxGeometry width="50" height="50" relative="1" as="geometry">
                        <mxPoint x="28" y="-28" as="sourcePoint"/>
                        <mxPoint x="78" y="-78" as="targetPoint"/>
                    </mxGeometry>
                </mxCell>
                <mxCell id="a_mR20tuXjC3Zlg9Piwa-37" value="" style="endArrow=classic;html=1;rounded=0;" parent="1" source="TZVktLVVKrQjs7F4-dLv-15" target="TZVktLVVKrQjs7F4-dLv-27" edge="1">
                    <mxGeometry width="50" height="50" relative="1" as="geometry">
                        <mxPoint x="28" y="-314" as="sourcePoint"/>
                        <mxPoint x="78" y="-364" as="targetPoint"/>
                    </mxGeometry>
                </mxCell>
                <mxCell id="a_mR20tuXjC3Zlg9Piwa-38" value="" style="endArrow=classic;html=1;rounded=0;" parent="1" source="TZVktLVVKrQjs7F4-dLv-15" target="TZVktLVVKrQjs7F4-dLv-23" edge="1">
                    <mxGeometry width="50" height="50" relative="1" as="geometry">
                        <mxPoint x="28" y="-243" as="sourcePoint"/>
                        <mxPoint x="78" y="-293" as="targetPoint"/>
                    </mxGeometry>
                </mxCell>
                <mxCell id="a_mR20tuXjC3Zlg9Piwa-39" value="" style="endArrow=classic;html=1;rounded=0;" parent="1" source="TZVktLVVKrQjs7F4-dLv-15" target="TZVktLVVKrQjs7F4-dLv-19" edge="1">
                    <mxGeometry width="50" height="50" relative="1" as="geometry">
                        <mxPoint x="28" y="-243" as="sourcePoint"/>
                        <mxPoint x="78" y="-293" as="targetPoint"/>
                    </mxGeometry>
                </mxCell>
                <mxCell id="a_mR20tuXjC3Zlg9Piwa-40" value="" style="endArrow=classic;html=1;rounded=0;" parent="1" source="TZVktLVVKrQjs7F4-dLv-15" target="TZVktLVVKrQjs7F4-dLv-31" edge="1">
                    <mxGeometry width="50" height="50" relative="1" as="geometry">
                        <mxPoint x="28" y="-243" as="sourcePoint"/>
                        <mxPoint x="78" y="-293" as="targetPoint"/>
                    </mxGeometry>
                </mxCell>
                <mxCell id="nnOfYmQvblicJ7rH4PoG-2" value="" style="endArrow=classic;html=1;rounded=0;" parent="1" source="oDtMXYs0QCIHP4GKAs03-10" target="2D4gFYe0Uq0gp5mNZwRW-11" edge="1">
                    <mxGeometry width="50" height="50" relative="1" as="geometry">
                        <mxPoint x="205" y="445" as="sourcePoint"/>
                        <mxPoint x="255" y="395" as="targetPoint"/>
                    </mxGeometry>
                </mxCell>
                <mxCell id="2D4gFYe0Uq0gp5mNZwRW-1" value="" style="endArrow=classic;html=1;rounded=0;curved=1;" parent="1" source="TZVktLVVKrQjs7F4-dLv-15" target="oDtMXYs0QCIHP4GKAs03-2" edge="1">
                    <mxGeometry width="50" height="50" relative="1" as="geometry">
                        <mxPoint x="197" y="235" as="sourcePoint"/>
                        <mxPoint x="247" y="185" as="targetPoint"/>
                        <Array as="points">
                            <mxPoint x="-166" y="43"/>
                            <mxPoint x="-256" y="296"/>
                            <mxPoint x="-176" y="548"/>
                        </Array>
                    </mxGeometry>
                </mxCell>
                <mxCell id="2D4gFYe0Uq0gp5mNZwRW-3" value="" style="endArrow=diamondThin;html=1;rounded=0;exitX=0;exitY=0.5;exitDx=0;exitDy=0;entryX=1;entryY=0.5;entryDx=0;entryDy=0;endFill=1;endSize=25;" parent="1" source="oDtMXYs0QCIHP4GKAs03-16" target="a_mR20tuXjC3Zlg9Piwa-19" edge="1">
                    <mxGeometry width="50" height="50" relative="1" as="geometry">
                        <mxPoint x="383" y="437" as="sourcePoint"/>
                        <mxPoint x="433" y="387" as="targetPoint"/>
                    </mxGeometry>
                </mxCell>
                <mxCell id="2D4gFYe0Uq0gp5mNZwRW-18" value="2" style="edgeLabel;html=1;align=center;verticalAlign=middle;resizable=0;points=[];" parent="2D4gFYe0Uq0gp5mNZwRW-3" vertex="1" connectable="0">
                    <mxGeometry x="0.0773" y="-2" relative="1" as="geometry">
                        <mxPoint as="offset"/>
                    </mxGeometry>
                </mxCell>
                <mxCell id="2D4gFYe0Uq0gp5mNZwRW-5" value="" style="endArrow=diamondThin;html=1;rounded=0;exitX=0.75;exitY=0;exitDx=0;exitDy=0;entryX=0.69;entryY=1.036;entryDx=0;entryDy=0;endFill=1;endSize=25;entryPerimeter=0;" parent="1" source="oDtMXYs0QCIHP4GKAs03-10" target="a_mR20tuXjC3Zlg9Piwa-19" edge="1">
                    <mxGeometry width="50" height="50" relative="1" as="geometry">
                        <mxPoint x="363" y="464" as="sourcePoint"/>
                        <mxPoint x="491" y="464" as="targetPoint"/>
                    </mxGeometry>
                </mxCell>
                <mxCell id="2D4gFYe0Uq0gp5mNZwRW-19" value="4" style="edgeLabel;html=1;align=center;verticalAlign=middle;resizable=0;points=[];" parent="2D4gFYe0Uq0gp5mNZwRW-5" vertex="1" connectable="0">
                    <mxGeometry x="0.2443" relative="1" as="geometry">
                        <mxPoint as="offset"/>
                    </mxGeometry>
                </mxCell>
                <mxCell id="2D4gFYe0Uq0gp5mNZwRW-6" value="ButtonListener" style="swimlane;fontStyle=0;childLayout=stackLayout;horizontal=1;startSize=30;horizontalStack=0;resizeParent=1;resizeParentMax=0;resizeLast=0;collapsible=1;marginBottom=0;whiteSpace=wrap;html=1;autosize=0;comic=0;enumerate=0;moveCells=0;backgroundOutline=0;" parent="1" vertex="1">
                    <mxGeometry x="452" y="270" width="174" height="90" as="geometry"/>
                </mxCell>
                <mxCell id="2D4gFYe0Uq0gp5mNZwRW-7" value="" style="text;strokeColor=default;fillColor=none;align=left;verticalAlign=middle;spacingLeft=4;spacingRight=4;overflow=hidden;points=[[0,0.5],[1,0.5]];portConstraint=eastwest;rotatable=0;whiteSpace=wrap;html=1;" parent="2D4gFYe0Uq0gp5mNZwRW-6" vertex="1">
                    <mxGeometry y="30" width="174" height="30" as="geometry"/>
                </mxCell>
                <mxCell id="2D4gFYe0Uq0gp5mNZwRW-8" value="+&lt;span style=&quot;text-wrap-mode: nowrap; font-size: 11px;&quot;&gt;buttonPressed(inputID:eInputID)&lt;/span&gt;&lt;div&gt;&lt;/div&gt;&lt;div&gt;+&lt;span style=&quot;text-wrap-mode: nowrap; font-size: 11px;&quot;&gt;buttonReleased(inputID:eInputID)&lt;/span&gt;&lt;/div&gt;" style="text;strokeColor=default;fillColor=none;align=left;verticalAlign=middle;spacingLeft=4;spacingRight=4;overflow=hidden;points=[[0,0.5],[1,0.5]];portConstraint=eastwest;rotatable=0;whiteSpace=wrap;html=1;" parent="2D4gFYe0Uq0gp5mNZwRW-6" vertex="1">
                    <mxGeometry y="60" width="174" height="30" as="geometry"/>
                </mxCell>
                <mxCell id="2D4gFYe0Uq0gp5mNZwRW-9" style="edgeStyle=none;rounded=0;orthogonalLoop=1;jettySize=auto;html=1;exitX=0;exitY=0.5;exitDx=0;exitDy=0;" parent="1" source="oDtMXYs0QCIHP4GKAs03-15" target="2D4gFYe0Uq0gp5mNZwRW-6" edge="1">
                    <mxGeometry relative="1" as="geometry"/>
                </mxCell>
                <mxCell id="2D4gFYe0Uq0gp5mNZwRW-10" style="edgeStyle=none;rounded=0;orthogonalLoop=1;jettySize=auto;html=1;exitX=1;exitY=0.5;exitDx=0;exitDy=0;dashed=1;endArrow=block;endFill=0;" parent="1" source="a_mR20tuXjC3Zlg9Piwa-18" target="2D4gFYe0Uq0gp5mNZwRW-6" edge="1">
                    <mxGeometry relative="1" as="geometry"/>
                </mxCell>
                <mxCell id="2D4gFYe0Uq0gp5mNZwRW-11" value="ButtonListener" style="swimlane;fontStyle=0;childLayout=stackLayout;horizontal=1;startSize=30;horizontalStack=0;resizeParent=1;resizeParentMax=0;resizeLast=0;collapsible=1;marginBottom=0;whiteSpace=wrap;html=1;autosize=0;comic=0;enumerate=0;moveCells=0;backgroundOutline=0;" parent="1" vertex="1">
                    <mxGeometry x="123" y="493" width="183" height="90" as="geometry"/>
                </mxCell>
                <mxCell id="2D4gFYe0Uq0gp5mNZwRW-12" value="" style="text;strokeColor=default;fillColor=none;align=left;verticalAlign=middle;spacingLeft=4;spacingRight=4;overflow=hidden;points=[[0,0.5],[1,0.5]];portConstraint=eastwest;rotatable=0;whiteSpace=wrap;html=1;" parent="2D4gFYe0Uq0gp5mNZwRW-11" vertex="1">
                    <mxGeometry y="30" width="183" height="30" as="geometry"/>
                </mxCell>
                <mxCell id="2D4gFYe0Uq0gp5mNZwRW-13" value="&lt;div&gt;&lt;span style=&quot;font-size: 11px; text-wrap-mode: nowrap;&quot;&gt;+&lt;/span&gt;&lt;span style=&quot;font-size: 11px; background-color: transparent;&quot;&gt;rotationCounter(inputID:eInputID)&lt;/span&gt;&lt;/div&gt;" style="text;strokeColor=default;fillColor=none;align=left;verticalAlign=middle;spacingLeft=4;spacingRight=4;overflow=hidden;points=[[0,0.5],[1,0.5]];portConstraint=eastwest;rotatable=0;whiteSpace=wrap;html=1;fontColor=default;" parent="2D4gFYe0Uq0gp5mNZwRW-11" vertex="1">
                    <mxGeometry y="60" width="183" height="30" as="geometry"/>
                </mxCell>
                <mxCell id="2D4gFYe0Uq0gp5mNZwRW-17" style="edgeStyle=none;rounded=0;orthogonalLoop=1;jettySize=auto;html=1;exitX=0.37;exitY=1.019;exitDx=0;exitDy=0;exitPerimeter=0;dashed=1;endArrow=block;endFill=0;" parent="1" source="a_mR20tuXjC3Zlg9Piwa-19" target="2D4gFYe0Uq0gp5mNZwRW-11" edge="1">
                    <mxGeometry relative="1" as="geometry"/>
                </mxCell>
            </root>
        </mxGraphModel>
    </diagram>
</mxfile>